<?xml version="1.0" encoding="utf-8"?>
<!-- Generator: Adobe Illustrator 21.0.2, SVG Export Plug-In . SVG Version: 6.00 Build 0)  -->
<svg version="1.1" id="Слой_1" xmlns="http://www.w3.org/2000/svg" xmlns:xlink="http://www.w3.org/1999/xlink" x="0px" y="0px"
	 viewBox="0 0 33 42" style="enable-background:new 0 0 33 42;" xml:space="preserve">
<style type="text/css">
	.st0{fill:#FFFFFF;}
</style>
<path class="st0" d="M31.7,8.9c-0.8-0.8-1.9-1.3-3.1-1.3H6.2C5.6,7.6,5,7,5,6.4C5,6,5.2,5.7,5.4,5.5c0.2-0.2,0.6-0.4,0.9-0.4h21.4
	c0.4,0,0.6-0.3,0.6-0.7c0-0.4-0.3-0.7-0.6-0.7H6.3C5.6,3.8,5,4.1,4.5,4.5C4,5,3.7,5.7,3.7,6.4c0,1.4,1.1,2.5,2.5,2.5h1.2v15.5
	c0,0.4,0.3,0.7,0.7,0.7c0.2,0,0.3-0.1,0.5-0.2l3.6-3.7c0.1-0.1,0.3-0.2,0.5-0.2c0.2,0,0.3,0.1,0.5,0.2l3.6,3.7
	c0.1,0.1,0.3,0.2,0.5,0.2c0.3,0,0.7-0.3,0.7-0.7V8.9h10.8c0.8,0,1.6,0.3,2.2,0.9c0.6,0.6,0.9,1.4,0.9,2.2v25.6
	c0,0.8-0.3,1.6-0.9,2.2s-1.3,0.9-2.1,0.9H4.4c-0.8,0-1.6-0.3-2.2-0.9c-0.6-0.6-0.9-1.4-0.9-2.2V5.4c0-2.2,1.8-4,4-4h25.2
	c0.4,0,0.6-0.3,0.6-0.7S30.8,0,30.5,0H5.3C2.4,0,0,2.4,0,5.4v32.2c0,1.2,0.5,2.3,1.3,3.2C2.1,41.5,3.2,42,4.4,42h24.3
	c1.2,0,2.2-0.5,3.1-1.3c0.8-0.8,1.3-1.9,1.3-3.1V12C33,10.8,32.5,9.7,31.7,8.9z M16.5,22.8L14,20.3c-0.4-0.4-0.9-0.6-1.4-0.6
	c-0.5,0-1,0.2-1.4,0.6l-2.5,2.5V8.9h7.8V22.8z"/>
</svg>
