<?xml version="1.0" encoding="utf-8"?>
<!-- Generator: Adobe Illustrator 21.0.2, SVG Export Plug-In . SVG Version: 6.00 Build 0)  -->
<svg version="1.1" id="Слой_1" xmlns="http://www.w3.org/2000/svg" xmlns:xlink="http://www.w3.org/1999/xlink" x="0px" y="0px"
	 width="24px" height="24px" viewBox="0 0 24 24" style="enable-background:new 0 0 24 24;" xml:space="preserve">
<style type="text/css">
	.st0{fill:#FFFFFF;}
</style>
<g>
	<path class="st0" d="M23.9,8.1l-7.9-7.9c-0.2-0.2-0.5-0.2-0.7,0l-3,3l0,1.3l-1.3,0L0.1,15.3c-0.2,0.2-0.2,0.5,0,0.7l7.9,7.9
		c0.2,0.2,0.5,0.2,0.7,0L19.6,13l0-1.3l1.3,0l3-3C24.1,8.6,24,8.3,23.9,8.1z M20.5,10.8l-0.9,0l-0.9,0l0,0.9l0,0.9L8.4,22.9
		l-7.3-7.3L11.4,5.3l0.9,0l0.9,0l0-0.9l0-0.9l2.4-2.4l7.3,7.3L20.5,10.8z M13.6,5.7c-0.2,0.2-0.2,0.5,0,0.7c0.2,0.2,0.5,0.2,0.7,0
		c0.2-0.2,0.2-0.5,0-0.7C14.1,5.6,13.8,5.6,13.6,5.7z M15,7.1c-0.2,0.2-0.2,0.5,0,0.7c0.2,0.2,0.5,0.2,0.7,0c0.2-0.2,0.2-0.5,0-0.7
		C15.4,6.9,15.1,6.9,15,7.1z M16.9,9.1c0.2-0.2,0.2-0.5,0-0.7c-0.2-0.2-0.5-0.2-0.7,0c-0.2,0.2-0.2,0.5,0,0.7
		C16.5,9.2,16.8,9.2,16.9,9.1z M18.3,10.4c0.2-0.2,0.2-0.5,0-0.7c-0.2-0.2-0.5-0.2-0.7,0c-0.2,0.2-0.2,0.5,0,0.7
		C17.8,10.6,18.1,10.6,18.3,10.4z"/>
</g>
</svg>
