<?xml version="1.0" encoding="utf-8"?>
<!-- Generator: Adobe Illustrator 21.0.2, SVG Export Plug-In . SVG Version: 6.00 Build 0)  -->
<svg version="1.1" id="Слой_1" xmlns="http://www.w3.org/2000/svg" xmlns:xlink="http://www.w3.org/1999/xlink" x="0px" y="0px"
	 width="24px" height="24px" viewBox="0 0 24 24" style="enable-background:new 0 0 24 24;" xml:space="preserve">
<style type="text/css">
	.st0{fill:#FFFFFF;}
</style>
<g>
	<path class="st0" d="M12,1c3,0,5.4,2.6,5.4,5.7c0,3.2-2.4,5.7-5.4,5.7c-3,0-5.4-2.6-5.4-5.7C6.5,3.6,9,1,12,1 M15.9,15.6
		c3.9,0,7,3.3,7.1,7.4H1c0.1-4.1,3.2-7.4,7.1-7.4H15.9 M12,0C8.4,0,5.5,3,5.5,6.7c0,3.7,2.9,6.7,6.4,6.7c3.5,0,6.4-3,6.4-6.7
		C18.4,3,15.5,0,12,0L12,0z M15.9,14.6H8.1c-4.4,0-8.1,3.8-8.1,8.5C0,23.6,0.4,24,0.8,24h22.3c0.5,0,0.8-0.4,0.8-0.9
		C24,18.5,20.4,14.6,15.9,14.6L15.9,14.6z"/>
</g>
</svg>
