<?xml version="1.0" encoding="utf-8"?>
<!-- Generator: Adobe Illustrator 21.0.2, SVG Export Plug-In . SVG Version: 6.00 Build 0)  -->
<svg version="1.1" id="Слой_1" xmlns="http://www.w3.org/2000/svg" xmlns:xlink="http://www.w3.org/1999/xlink" x="0px" y="0px"
	 viewBox="0 0 24 31" style="enable-background:new 0 0 24 31;" xml:space="preserve">
<style type="text/css">
	.st0{fill:#FFFFFF;}
</style>
<g>
	<path class="st0" d="M23.3,1.9h-6.1V0.6C17.3,0.3,17,0,16.6,0H7.4C7,0,6.7,0.3,6.7,0.6v1.3H0.7C0.3,1.9,0,2.2,0,2.6v27.8
		C0,30.7,0.3,31,0.7,31h22.7c0.4,0,0.7-0.3,0.7-0.6V2.6C24,2.2,23.7,1.9,23.3,1.9z M8,1.2h8v3.1H8V1.2z M22.7,29.8H1.3V3.2h5.4V5
		c0,0.3,0.3,0.6,0.7,0.6h9.3c0.4,0,0.7-0.3,0.7-0.6V3.2h5.4V29.8z M7.4,7.7H3.6C3.2,7.7,2.9,8,2.9,8.3v3.6c0,0.3,0.3,0.6,0.7,0.6
		h3.8c0.4,0,0.7-0.3,0.7-0.6V8.3C8,8,7.7,7.7,7.4,7.7z M6.7,11.3H4.2V8.9h2.5V11.3z M9.3,10.1c0,0.3,0.3,0.6,0.7,0.6h9.3
		c0.4,0,0.7-0.3,0.7-0.6c0-0.3-0.3-0.6-0.7-0.6H10C9.6,9.5,9.3,9.8,9.3,10.1z M7.4,14.6H3.6c-0.4,0-0.7,0.3-0.7,0.6v3.6
		c0,0.3,0.3,0.6,0.7,0.6h3.8c0.4,0,0.7-0.3,0.7-0.6v-3.6C8,14.9,7.7,14.6,7.4,14.6z M6.7,18.2H4.2v-2.4h2.5V18.2z M19.3,16.4H10
		c-0.4,0-0.7,0.3-0.7,0.6c0,0.3,0.3,0.6,0.7,0.6h9.3c0.4,0,0.7-0.3,0.7-0.6C20,16.7,19.7,16.4,19.3,16.4z M7.4,22.8
		c0.4,0,0.7-0.3,0.7-0.6c0-0.3-0.3-0.6-0.7-0.6H3.6c-0.4,0-0.7,0.3-0.7,0.6v3.6c0,0.3,0.3,0.6,0.7,0.6h3.8c0.4,0,0.7-0.3,0.7-0.6
		c0-0.3-0.3-0.6-0.7-0.6H4.2v-2.4H7.4z M19.3,23.3H10c-0.4,0-0.7,0.3-0.7,0.6c0,0.3,0.3,0.6,0.7,0.6h9.3c0.4,0,0.7-0.3,0.7-0.6
		C20,23.6,19.7,23.3,19.3,23.3z"/>
</g>
</svg>
