<?xml version="1.0" encoding="utf-8"?>
<!-- Generator: Adobe Illustrator 21.0.2, SVG Export Plug-In . SVG Version: 6.00 Build 0)  -->
<svg version="1.1" id="Слой_1" xmlns="http://www.w3.org/2000/svg" xmlns:xlink="http://www.w3.org/1999/xlink" x="0px" y="0px"
	 width="24px" height="24px" viewBox="0 0 24 24" style="enable-background:new 0 0 24 24;" xml:space="preserve">
<style type="text/css">
	.st0{fill:#FFFFFF;}
</style>
<g>
	<path class="st0" d="M18.8,12.9c-0.2,0-0.4,0-0.6,0c0.4-0.7,0.7-1.4,1-2.1C19.7,10.6,20,10,20,9.3V7.6c0-0.4-0.1-0.8-0.4-1.1l0-2.2
		c0-0.2,0.1-1.6-0.9-2.8c-0.8-1-2.2-1.5-4-1.5c-1.8,0-3.2,0.5-4,1.5C10.2,2.2,10,2.9,10,3.4C9.3,3.1,8.5,2.9,7.6,2.9
		c-4.2,0-4.5,3.7-4.5,3.9v1.9C2.9,9,2.8,9.3,2.8,9.7v1.4c0,0.5,0.2,0.9,0.5,1.2c0.3,1.3,1.1,2.2,1.4,2.6V16c0,0.3-0.2,0.6-0.4,0.7
		l-2.6,1.7c-1,0.6-1.7,1.7-1.7,3v1.7h16c0.8,0.5,1.8,0.8,2.8,0.8c2.9,0,5.3-2.5,5.3-5.5C24,15.4,21.6,12.9,18.8,12.9z M5.6,22.1H1
		v-0.6c0-0.9,0.5-1.7,1.2-2.1l2.6-1.7c0.6-0.3,0.9-0.9,0.9-1.6v-1.5l-0.2-0.2c0,0-1-1-1.3-2.4l0-0.2L4,11.6
		c-0.2-0.1-0.2-0.3-0.2-0.5V9.7c0-0.1,0.1-0.3,0.2-0.4l0.2-0.2l0-2.3C4.2,6.7,4.3,4,7.6,4c0.9,0,1.7,0.2,2.3,0.6v1.9
		C9.7,6.8,9.5,7.2,9.5,7.6v1.7c0,0.1,0,0.3,0,0.4c0,0,0,0.1,0,0.1l0,0.1c0,0.1,0,0.1,0.1,0.2l0,0.1h0c0.1,0.2,0.2,0.4,0.4,0.5
		c0,0.1,0,0.2,0.1,0.3l0.1,0.2c0,0,0,0.1,0,0.1c0,0.1,0,0.1,0.1,0.2c0,0,0,0.1,0,0.1c0,0.1,0.1,0.2,0.1,0.3l0.1,0.2
		c0,0.1,0.1,0.2,0.1,0.3c0,0,0,0,0,0c0,0.1,0,0.1,0.1,0.2c0,0.1,0.1,0.2,0.1,0.2l0.1,0.1c0.1,0.1,0.1,0.2,0.2,0.3c0,0,0,0,0,0
		c0.1,0.2,0.2,0.3,0.3,0.4c0,0,0,0.1,0.1,0.1c0,0,0,0,0,0V15c0,0.4-0.2,0.7-0.5,0.9l-3.5,2c-1.2,0.7-1.9,2-1.9,3.4V22.1z M6.5,22.1
		v-0.8c0-1,0.5-2,1.4-2.5l3.5-2c0.6-0.4,1-1,1-1.8v-1.7L12.3,13c0,0,0,0-0.1-0.1l0,0c0,0,0,0,0,0l0,0h0c0-0.1-0.1-0.2-0.2-0.3l0-0.1
		c0,0-0.1-0.1-0.1-0.2c-0.1-0.2-0.2-0.3-0.3-0.5l0,0c0-0.1-0.1-0.2-0.2-0.3c0,0,0,0,0,0c0,0,0-0.1-0.1-0.1l0-0.1
		c0-0.1,0-0.1-0.1-0.2c0-0.1-0.1-0.2-0.1-0.3l0-0.1c0,0,0,0,0,0c0-0.1-0.1-0.3-0.1-0.4l0-0.2l-0.2-0.1c-0.2-0.1-0.3-0.4-0.3-0.6V7.6
		c0-0.2,0.1-0.4,0.2-0.5l0.2-0.2V4.1l0-0.1l0,0c0-0.3,0-1.2,0.6-1.9C12.2,1.4,13.3,1,14.8,1c1.5,0,2.6,0.4,3.3,1.1
		c0.7,0.9,0.6,2,0.6,2l0,2.7l0.2,0.2C19,7.2,19,7.4,19,7.6v1.7c0,0.3-0.2,0.6-0.5,0.7l-0.2,0.1l-0.1,0.3c-0.3,0.9-0.6,1.7-1.1,2.4
		c-0.1,0.2-0.2,0.3-0.3,0.4l-0.1,0.1v0.1c-0.1,0-0.2,0.1-0.2,0.1c0,0-0.1,0-0.1,0c-0.1,0-0.2,0.1-0.3,0.2l0,0c0,0-0.1,0-0.1,0.1
		c-0.1,0.1-0.2,0.1-0.2,0.2c0,0-0.1,0.1-0.1,0.1c-0.1,0.1-0.2,0.2-0.4,0.3c0,0-0.1,0.1-0.1,0.1c0,0-0.1,0.1-0.1,0.1l-0.1,0.1
		c0,0.1-0.1,0.1-0.1,0.2l0,0.1c0,0-0.1,0.1-0.1,0.1c0,0.1-0.1,0.1-0.1,0.2c-0.1,0.1-0.2,0.2-0.2,0.4l0,0.1c0,0,0,0.1-0.1,0.1
		c0,0.1-0.1,0.1-0.1,0.2l0,0.1c0,0,0,0.1-0.1,0.1c0,0.1-0.1,0.2-0.1,0.2c0,0.1,0,0.1-0.1,0.2l0,0c0,0.1-0.1,0.2-0.1,0.3
		c0,0.1-0.1,0.2-0.1,0.4c0,0.1,0,0.1,0,0.2c0,0.1,0,0.2,0,0.3l0,0.1c0,0,0,0.1,0,0.1c0,0.2,0,0.3,0,0.5c0,0.2,0,0.4,0,0.5
		c0,0,0,0.1,0,0.1c0,0,0,0.1,0,0.1c0,0.1,0,0.2,0,0.3c0,0.1,0,0.1,0,0.2l0,0.1c0,0.1,0,0.2,0.1,0.2c0,0,0,0.1,0,0.1c0,0,0,0.1,0,0.1
		c0,0.1,0.1,0.2,0.1,0.3c0,0,0,0.1,0,0.1l0,0.1c0,0.1,0.1,0.2,0.1,0.3l0.1,0.1c0.1,0.1,0.1,0.2,0.2,0.3c0,0,0,0,0,0.1l0,0
		c0.1,0.1,0.1,0.2,0.2,0.3l0.1,0.2H6.5z M18.8,23c-0.8,0-1.7-0.3-2.4-0.8c-0.1-0.1-0.2-0.2-0.4-0.3c0,0-0.1-0.1-0.1-0.1
		c-0.1-0.1-0.2-0.1-0.2-0.2c0,0-0.1-0.1-0.1-0.2c-0.1-0.1-0.1-0.2-0.2-0.2c0-0.1-0.1-0.1-0.1-0.2c-0.1-0.1-0.2-0.3-0.2-0.4
		c0,0,0,0,0,0l0,0c-0.1-0.1-0.1-0.2-0.2-0.4c0,0,0-0.1,0-0.1l0-0.1c0-0.1-0.1-0.2-0.1-0.3c0-0.1,0-0.1,0-0.2c0-0.1,0-0.2-0.1-0.3
		c0,0,0-0.1,0-0.1c0,0,0,0,0-0.1c0-0.2,0-0.4,0-0.5c0-0.1,0-0.3,0-0.4c0,0,0-0.1,0-0.1l0-0.1c0-0.1,0-0.2,0-0.3l0-0.2
		c0-0.1,0-0.1,0.1-0.2l0-0.1c0,0,0-0.1,0-0.1c0-0.1,0.1-0.2,0.1-0.3c0-0.1,0.1-0.1,0.1-0.2c0,0,0-0.1,0.1-0.1c0-0.1,0.1-0.1,0.1-0.2
		c0,0,0-0.1,0.1-0.1c0-0.1,0.1-0.1,0.1-0.2c0,0,0-0.1,0.1-0.1c0.1-0.1,0.2-0.2,0.3-0.4c0,0,0,0,0,0c0,0,0,0,0,0
		c0.1-0.1,0.1-0.1,0.2-0.2l0.1-0.1c0.1-0.1,0.1-0.1,0.2-0.2c0,0,0,0,0.1-0.1c0.1-0.1,0.1-0.1,0.2-0.2c0.3-0.2,0.6-0.3,0.9-0.4
		l0.2-0.1c0.4-0.1,0.8-0.2,1.3-0.2c2.4,0,4.3,2,4.3,4.5C23,20.9,21.1,23,18.8,23z M19.3,16.1h-1.2v1.7h-1.6v1.3h1.6v1.7h1.2v-1.7
		h1.6v-1.3h-1.6V16.1z"/>
</g>
</svg>
