<?xml version="1.0" encoding="utf-8"?>
<!-- Generator: Adobe Illustrator 21.0.2, SVG Export Plug-In . SVG Version: 6.00 Build 0)  -->
<svg version="1.1" id="Слой_1" xmlns="http://www.w3.org/2000/svg" xmlns:xlink="http://www.w3.org/1999/xlink" x="0px" y="0px"
	 width="24px" height="24px" viewBox="0 0 24 24" style="enable-background:new 0 0 24 24;" xml:space="preserve">
<style type="text/css">
	.st0{fill:#FFFFFF;}
</style>
<g>
	<path class="st0" d="M19.2,22.8H2.4V21H3c0.3,0,0.6-0.3,0.6-0.6S3.3,19.8,3,19.8H2.4v-1.2H3c0.3,0,0.6-0.3,0.6-0.6
		c0-0.3-0.3-0.6-0.6-0.6H2.4v-1.2H3c0.3,0,0.6-0.3,0.6-0.6S3.3,15,3,15H2.4v-1.2H3c0.3,0,0.6-0.3,0.6-0.6S3.3,12.6,3,12.6H2.4v-1.2
		H3c0.3,0,0.6-0.3,0.6-0.6c0-0.3-0.3-0.6-0.6-0.6H2.4V9H3c0.3,0,0.6-0.3,0.6-0.6c0-0.3-0.3-0.6-0.6-0.6H2.4V6.6H3
		c0.3,0,0.6-0.3,0.6-0.6S3.3,5.4,3,5.4H2.4V4.2H3c0.3,0,0.6-0.3,0.6-0.6S3.3,3,3,3H2.4V1.2h16.8v1.2h1.2V1.2c0-0.7-0.5-1.2-1.2-1.2
		H2.4C1.7,0,1.2,0.5,1.2,1.2V3H0.6C0.3,3,0,3.3,0,3.6s0.3,0.6,0.6,0.6h0.6v1.2H0.6C0.3,5.4,0,5.7,0,6s0.3,0.6,0.6,0.6h0.6v1.2H0.6
		C0.3,7.8,0,8.1,0,8.4C0,8.7,0.3,9,0.6,9h0.6v1.2H0.6c-0.3,0-0.6,0.3-0.6,0.6c0,0.3,0.3,0.6,0.6,0.6h0.6v1.2H0.6
		c-0.3,0-0.6,0.3-0.6,0.6s0.3,0.6,0.6,0.6h0.6V15H0.6C0.3,15,0,15.3,0,15.6c0,0.3,0.3,0.6,0.6,0.6h0.6v1.2H0.6C0.3,17.4,0,17.7,0,18
		c0,0.3,0.3,0.6,0.6,0.6h0.6v1.2H0.6c-0.3,0-0.6,0.3-0.6,0.6C0,20.7,0.3,21,0.6,21h0.6v1.8c0,0.7,0.5,1.2,1.2,1.2h16.8
		c0.7,0,1.2-0.5,1.2-1.2V11.2l-1.2,1.2V22.8z M23.6,4.6l-1.2-1.2C22.2,3.1,21.9,3,21.6,3c-0.3,0-0.6,0.1-0.8,0.4l-0.2,0.2H18
		c-0.2,0-0.3,0.1-0.4,0.2L14,7.4l0.8,0.8l3.4-3.4h1.1l-9.3,9.4c-0.1,0.1-0.2,0.2-0.2,0.3l-1.2,2.4c-0.2,0.5-0.1,1,0.2,1.4
		c0.2,0.2,0.5,0.4,0.8,0.4c0.2,0,0.4,0,0.5-0.1l2.4-1.2c0.1-0.1,0.2-0.1,0.3-0.2L23.6,6.2C24.1,5.8,24.1,5,23.6,4.6z M9.6,17.4
		l0.9-1.8l0.9,0.9L9.6,17.4z M12.4,15.8l-1.2-1.2L21.6,4.2l1.2,1.2L12.4,15.8z"/>
</g>
</svg>
